<svg id="visual" viewBox="0 0 900 600" width="900" height="600" xmlns="http://www.w3.org/2000/svg" xmlns:xlink="http://www.w3.org/1999/xlink" version="1.1"><path d="M0 202L21.5 198.7C43 195.3 86 188.7 128.8 195.5C171.7 202.3 214.3 222.7 257.2 232C300 241.3 343 239.7 385.8 228.8C428.7 218 471.3 198 514.2 194.5C557 191 600 204 642.8 207.7C685.7 211.3 728.3 205.7 771.2 195.8C814 186 857 172 878.5 165L900 158L900 0L878.5 0C857 0 814 0 771.2 0C728.3 0 685.7 0 642.8 0C600 0 557 0 514.2 0C471.3 0 428.7 0 385.8 0C343 0 300 0 257.2 0C214.3 0 171.7 0 128.8 0C86 0 43 0 21.5 0L0 0Z" fill="#e74c3c"></path><path d="M0 143L21.5 142C43 141 86 139 128.8 144C171.7 149 214.3 161 257.2 170.7C300 180.3 343 187.7 385.8 181.7C428.7 175.7 471.3 156.3 514.2 153C557 149.7 600 162.3 642.8 169.5C685.7 176.7 728.3 178.3 771.2 176.2C814 174 857 168 878.5 165L900 162L900 0L878.5 0C857 0 814 0 771.2 0C728.3 0 685.7 0 642.8 0C600 0 557 0 514.2 0C471.3 0 428.7 0 385.8 0C343 0 300 0 257.2 0C214.3 0 171.7 0 128.8 0C86 0 43 0 21.5 0L0 0Z" fill="#e23f48"></path><path d="M0 153L21.5 142.5C43 132 86 111 128.8 102C171.7 93 214.3 96 257.2 104.2C300 112.3 343 125.7 385.8 132.3C428.7 139 471.3 139 514.2 138.8C557 138.7 600 138.3 642.8 135C685.7 131.7 728.3 125.3 771.2 127.7C814 130 857 141 878.5 146.5L900 152L900 0L878.5 0C857 0 814 0 771.2 0C728.3 0 685.7 0 642.8 0C600 0 557 0 514.2 0C471.3 0 428.7 0 385.8 0C343 0 300 0 257.2 0C214.3 0 171.7 0 128.8 0C86 0 43 0 21.5 0L0 0Z" fill="#db3354"></path><path d="M0 107L21.5 99.2C43 91.3 86 75.7 128.8 72.8C171.7 70 214.3 80 257.2 85.8C300 91.7 343 93.3 385.8 94.7C428.7 96 471.3 97 514.2 98C557 99 600 100 642.8 100C685.7 100 728.3 99 771.2 96.3C814 93.7 857 89.3 878.5 87.2L900 85L900 0L878.5 0C857 0 814 0 771.2 0C728.3 0 685.7 0 642.8 0C600 0 557 0 514.2 0C471.3 0 428.7 0 385.8 0C343 0 300 0 257.2 0C214.3 0 171.7 0 128.8 0C86 0 43 0 21.5 0L0 0Z" fill="#d2295e"></path><path d="M0 59L21.5 53.3C43 47.7 86 36.3 128.8 37.8C171.7 39.3 214.3 53.7 257.2 58.2C300 62.7 343 57.3 385.8 57.7C428.7 58 471.3 64 514.2 61.7C557 59.3 600 48.7 642.8 44.5C685.7 40.3 728.3 42.7 771.2 46.3C814 50 857 55 878.5 57.5L900 60L900 0L878.5 0C857 0 814 0 771.2 0C728.3 0 685.7 0 642.8 0C600 0 557 0 514.2 0C471.3 0 428.7 0 385.8 0C343 0 300 0 257.2 0C214.3 0 171.7 0 128.8 0C86 0 43 0 21.5 0L0 0Z" fill="#c62368"></path></svg>